<?xml version="1.0" encoding="UTF-8" standalone="no"?><!DOCTYPE svg PUBLIC "-//W3C//DTD SVG 1.1//EN" "http://www.w3.org/Graphics/SVG/1.1/DTD/svg11.dtd"><!-- Generated by graphviz version 2.40.1 (20161225.0304)
 --><!-- Title: FSM1c Pages: 1 --><svg xmlns="http://www.w3.org/2000/svg" xmlns:xlink="http://www.w3.org/1999/xlink" width="355pt" height="493pt" viewBox="0.00 0.00 355.24 493.20">
<g id="graph0" class="graph" transform="scale(1 1) rotate(0) translate(4 489.2)">
<title>FSM1c</title>
<polygon fill="#ffffff" stroke="transparent" points="-4,4 -4,-489.2 351.2432,-489.2 351.2432,4 -4,4"/>
<text text-anchor="middle" x="173.6216" y="-459.6" font-family="Times,serif" font-size="24.00" fill="#000000">Finite State Machine 1c: Layout II</text>
<!-- Three -->
<g id="node1" class="node">
<title>Three</title>
<ellipse fill="none" stroke="#000000" cx="112.7596" cy="-179.8" rx="33.6054" ry="18"/>
<text text-anchor="middle" x="112.7596" y="-175.6" font-family="Times,serif" font-size="14.00" fill="#000000">Three</text>
</g>
<!-- Four -->
<g id="node2" class="node">
<title>Four</title>
<ellipse fill="none" stroke="#000000" cx="238.7596" cy="-179.8" rx="29.0548" ry="18"/>
<text text-anchor="middle" x="238.7596" y="-175.6" font-family="Times,serif" font-size="14.00" fill="#000000">Four</text>
</g>
<!-- Three&#45;&gt;Four -->
<g id="edge5" class="edge">
<title>Three-&gt;Four</title>
<path fill="none" stroke="#000000" d="M146.5253,-179.8C162.7037,-179.8 182.1869,-179.8 199.07,-179.8"/>
<polygon fill="#000000" stroke="#000000" points="199.1934,-183.3001 209.1934,-179.8 199.1933,-176.3001 199.1934,-183.3001"/>
<text text-anchor="middle" x="177.8977" y="-187" font-family="Times,serif" font-size="14.00" fill="#000000">Event D</text>
</g>
<!-- Five -->
<g id="node6" class="node">
<title>Five</title>
<ellipse fill="none" stroke="#000000" cx="174.7596" cy="-91" rx="28.4088" ry="18"/>
<text text-anchor="middle" x="174.7596" y="-86.8" font-family="Times,serif" font-size="14.00" fill="#000000">Five</text>
</g>
<!-- Three&#45;&gt;Five -->
<g id="edge7" class="edge">
<title>Three-&gt;Five</title>
<path fill="none" stroke="#000000" d="M124.7139,-162.6785C134.0091,-149.3653 147.0343,-130.7098 157.4665,-115.7683"/>
<polygon fill="#000000" stroke="#000000" points="160.4063,-117.6715 163.2613,-107.4685 154.6669,-113.6641 160.4063,-117.6715"/>
<text text-anchor="middle" x="171.7298" y="-131.2" font-family="Times,serif" font-size="14.00" fill="#000000">Event F</text>
</g>
<!-- Four&#45;&gt;Three -->
<g id="edge6" class="edge">
<title>Four-&gt;Three</title>
<path fill="none" stroke="#000000" d="M217.8775,-166.8027C212.3479,-164.0027 206.244,-161.4501 200.2529,-160 180.9393,-155.3254 174.9489,-155.727 155.5425,-160 152.163,-160.7441 148.7327,-161.7825 145.3607,-162.9978"/>
<polygon fill="#000000" stroke="#000000" points="144.0274,-159.7616 136.1022,-166.7931 146.6826,-166.2385 144.0274,-159.7616"/>
<text text-anchor="middle" x="177.8977" y="-164.2" font-family="Times,serif" font-size="14.00" fill="#000000">Event E</text>
</g>
<!-- Four&#45;&gt;Five -->
<g id="edge8" class="edge">
<title>Four-&gt;Five</title>
<path fill="none" stroke="#000000" d="M226.7217,-163.0974C217.1568,-149.826 203.6301,-131.0577 192.7756,-115.9971"/>
<polygon fill="#000000" stroke="#000000" points="195.4299,-113.6939 186.7436,-107.6277 189.7511,-117.7867 195.4299,-113.6939"/>
<text text-anchor="middle" x="235.8918" y="-131.2" font-family="Times,serif" font-size="14.00" fill="#000000">Event G</text>
</g>
<!-- Start -->
<g id="node3" class="node">
<title>Start</title>
<polygon fill="none" stroke="#000000" points="202.7596,-448.4 148.7596,-448.4 148.7596,-412.4 202.7596,-412.4 202.7596,-448.4"/>
<text text-anchor="middle" x="175.7596" y="-426.2" font-family="Times,serif" font-size="14.00" fill="#000000">Start</text>
</g>
<!-- One -->
<g id="node4" class="node">
<title>One</title>
<ellipse fill="none" stroke="#000000" cx="175.7596" cy="-357.4" rx="27.2467" ry="18"/>
<text text-anchor="middle" x="175.7596" y="-353.2" font-family="Times,serif" font-size="14.00" fill="#000000">One</text>
</g>
<!-- Start&#45;&gt;One -->
<g id="edge1" class="edge">
<title>Start-&gt;One</title>
<path fill="none" stroke="#000000" d="M175.7596,-412.3551C175.7596,-404.2828 175.7596,-394.5764 175.7596,-385.5817"/>
<polygon fill="#000000" stroke="#000000" points="179.2597,-385.4903 175.7596,-375.4904 172.2597,-385.4904 179.2597,-385.4903"/>
</g>
<!-- Two -->
<g id="node5" class="node">
<title>Two</title>
<ellipse fill="none" stroke="#000000" cx="175.7596" cy="-268.6" rx="28.9735" ry="18"/>
<text text-anchor="middle" x="175.7596" y="-264.4" font-family="Times,serif" font-size="14.00" fill="#000000">Two</text>
</g>
<!-- One&#45;&gt;Two -->
<g id="edge2" class="edge">
<title>One-&gt;Two</title>
<path fill="none" stroke="#000000" d="M175.7596,-339.0006C175.7596,-326.8949 175.7596,-310.8076 175.7596,-297.0674"/>
<polygon fill="#000000" stroke="#000000" points="179.2597,-296.672 175.7596,-286.672 172.2597,-296.6721 179.2597,-296.672"/>
<text text-anchor="middle" x="198.8918" y="-308.8" font-family="Times,serif" font-size="14.00" fill="#000000">Event A</text>
</g>
<!-- Two&#45;&gt;Three -->
<g id="edge3" class="edge">
<title>Two-&gt;Three</title>
<path fill="none" stroke="#000000" d="M163.9098,-251.8974C154.5539,-238.71 141.3473,-220.095 130.6973,-205.0835"/>
<polygon fill="#000000" stroke="#000000" points="133.4114,-202.8603 124.7705,-196.7296 127.7023,-206.9108 133.4114,-202.8603"/>
<text text-anchor="middle" x="173.5068" y="-220" font-family="Times,serif" font-size="14.00" fill="#000000">Event B</text>
</g>
<!-- Two&#45;&gt;Four -->
<g id="edge4" class="edge">
<title>Two-&gt;Four</title>
<path fill="none" stroke="#000000" d="M187.6095,-251.8974C197.025,-238.626 210.3403,-219.8577 221.0252,-204.7971"/>
<polygon fill="#000000" stroke="#000000" points="224.0312,-206.6088 226.963,-196.4277 218.3221,-202.5584 224.0312,-206.6088"/>
<text text-anchor="middle" x="236.5068" y="-220" font-family="Times,serif" font-size="14.00" fill="#000000">Event C</text>
</g>
<!-- End -->
<g id="node7" class="node">
<title>End</title>
<polygon fill="none" stroke="#000000" points="201.7596,-36 147.7596,-36 147.7596,0 201.7596,0 201.7596,-36"/>
<text text-anchor="middle" x="174.7596" y="-13.8" font-family="Times,serif" font-size="14.00" fill="#000000">End</text>
</g>
<!-- Five&#45;&gt;End -->
<g id="edge9" class="edge">
<title>Five-&gt;End</title>
<path fill="none" stroke="#000000" d="M174.7596,-72.9551C174.7596,-64.8828 174.7596,-55.1764 174.7596,-46.1817"/>
<polygon fill="#000000" stroke="#000000" points="178.2597,-46.0903 174.7596,-36.0904 171.2597,-46.0904 178.2597,-46.0903"/>
</g>
</g>
</svg>