<?xml version="1.0" encoding="UTF-8" standalone="no"?><!DOCTYPE svg PUBLIC "-//W3C//DTD SVG 1.1//EN" "http://www.w3.org/Graphics/SVG/1.1/DTD/svg11.dtd"><!-- Generated by graphviz version 2.40.1 (20161225.0304)
 --><!-- Title: FSM1d Pages: 1 --><svg xmlns="http://www.w3.org/2000/svg" xmlns:xlink="http://www.w3.org/1999/xlink" width="393pt" height="258pt" viewBox="0.00 0.00 393.26 258.40">
<g id="graph0" class="graph" transform="scale(1 1) rotate(0) translate(4 254.4)">
<title>FSM1d</title>
<polygon fill="#ffffff" stroke="transparent" points="-4,4 -4,-254.4 389.2616,-254.4 389.2616,4 -4,4"/>
<text text-anchor="middle" x="192.6308" y="-224.8" font-family="Times,serif" font-size="24.00" fill="#000000">Finite State Machine 1d: Add Event H</text>
<!-- Three -->
<g id="node1" class="node">
<title>Three</title>
<ellipse fill="none" stroke="#000000" cx="67.9071" cy="-195.6" rx="33.6054" ry="18"/>
<text text-anchor="middle" x="67.9071" y="-191.4" font-family="Times,serif" font-size="14.00" fill="#000000">Three</text>
</g>
<!-- Four -->
<g id="node2" class="node">
<title>Four</title>
<ellipse fill="none" stroke="#000000" cx="193.9071" cy="-195.6" rx="29.0548" ry="18"/>
<text text-anchor="middle" x="193.9071" y="-191.4" font-family="Times,serif" font-size="14.00" fill="#000000">Four</text>
</g>
<!-- Three&#45;&gt;Four -->
<g id="edge5" class="edge">
<title>Three-&gt;Four</title>
<path fill="none" stroke="#000000" d="M101.6728,-195.6C117.8512,-195.6 137.3344,-195.6 154.2175,-195.6"/>
<polygon fill="#000000" stroke="#000000" points="154.3409,-199.1001 164.3408,-195.6 154.3408,-192.1001 154.3409,-199.1001"/>
<text text-anchor="middle" x="133.0452" y="-202.8" font-family="Times,serif" font-size="14.00" fill="#000000">Event D</text>
</g>
<!-- Five -->
<g id="node6" class="node">
<title>Five</title>
<ellipse fill="none" stroke="#000000" cx="234.9071" cy="-106.8" rx="28.4088" ry="18"/>
<text text-anchor="middle" x="234.9071" y="-102.6" font-family="Times,serif" font-size="14.00" fill="#000000">Five</text>
</g>
<!-- Three&#45;&gt;Five -->
<g id="edge7" class="edge">
<title>Three-&gt;Five</title>
<path fill="none" stroke="#000000" d="M86.4635,-180.4769C101.142,-169.0388 122.5047,-153.524 142.9667,-142.8 163.4942,-132.0417 170.3371,-133.2766 191.9071,-124.8 195.1695,-123.5179 198.5589,-122.1545 201.9388,-120.7738"/>
<polygon fill="#000000" stroke="#000000" points="203.4235,-123.9473 211.3263,-116.8906 200.7478,-117.4789 203.4235,-123.9473"/>
<text text-anchor="middle" x="165.8773" y="-147" font-family="Times,serif" font-size="14.00" fill="#000000">Event F</text>
</g>
<!-- Four&#45;&gt;Three -->
<g id="edge6" class="edge">
<title>Four-&gt;Three</title>
<path fill="none" stroke="#000000" d="M173.025,-182.6027C167.4953,-179.8027 161.3915,-177.2501 155.4004,-175.8 136.0867,-171.1254 130.0964,-171.527 110.69,-175.8 107.3104,-176.5441 103.8802,-177.5825 100.5082,-178.7978"/>
<polygon fill="#000000" stroke="#000000" points="99.1749,-175.5616 91.2497,-182.5931 101.83,-182.0385 99.1749,-175.5616"/>
<text text-anchor="middle" x="133.0452" y="-180" font-family="Times,serif" font-size="14.00" fill="#000000">Event E</text>
</g>
<!-- One -->
<g id="node4" class="node">
<title>One</title>
<ellipse fill="none" stroke="#000000" cx="307.9071" cy="-106.8" rx="27.2467" ry="18"/>
<text text-anchor="middle" x="307.9071" y="-102.6" font-family="Times,serif" font-size="14.00" fill="#000000">One</text>
</g>
<!-- Four&#45;&gt;One -->
<g id="edge9" class="edge">
<title>Four-&gt;One</title>
<path fill="none" stroke="#000000" d="M212.7066,-181.2943C221.3221,-174.7141 231.6544,-166.7889 240.9071,-159.6 254.5901,-148.969 269.7608,-137.0267 282.2012,-127.1922"/>
<polygon fill="#000000" stroke="#000000" points="284.6563,-129.7128 290.3258,-120.7626 280.3123,-124.2237 284.6563,-129.7128"/>
<text text-anchor="middle" x="285.0393" y="-147" font-family="Times,serif" font-size="14.00" fill="#000000">Event H</text>
</g>
<!-- Four&#45;&gt;Five -->
<g id="edge8" class="edge">
<title>Four-&gt;Five</title>
<path fill="none" stroke="#000000" d="M190.6746,-177.7001C189.5881,-167.0911 189.7006,-153.6448 194.6427,-142.8 197.5165,-136.4938 202.0869,-130.8283 207.1347,-125.9592"/>
<polygon fill="#000000" stroke="#000000" points="209.4399,-128.593 214.7299,-119.4133 204.87,-123.2905 209.4399,-128.593"/>
<text text-anchor="middle" x="218.0393" y="-147" font-family="Times,serif" font-size="14.00" fill="#000000">Event G</text>
</g>
<!-- Start -->
<g id="node3" class="node">
<title>Start</title>
<polygon fill="none" stroke="#000000" points="350.9071,-213.6 296.9071,-213.6 296.9071,-177.6 350.9071,-177.6 350.9071,-213.6"/>
<text text-anchor="middle" x="323.9071" y="-191.4" font-family="Times,serif" font-size="14.00" fill="#000000">Start</text>
</g>
<!-- Start&#45;&gt;One -->
<g id="edge1" class="edge">
<title>Start-&gt;One</title>
<path fill="none" stroke="#000000" d="M320.5919,-177.2006C318.3891,-164.975 315.4546,-148.6887 312.963,-134.8599"/>
<polygon fill="#000000" stroke="#000000" points="316.3812,-134.0929 311.1633,-124.872 309.4921,-135.3342 316.3812,-134.0929"/>
</g>
<!-- Two -->
<g id="node5" class="node">
<title>Two</title>
<ellipse fill="none" stroke="#000000" cx="142.9071" cy="-18" rx="28.9735" ry="18"/>
<text text-anchor="middle" x="142.9071" y="-13.8" font-family="Times,serif" font-size="14.00" fill="#000000">Two</text>
</g>
<!-- One&#45;&gt;Two -->
<g id="edge2" class="edge">
<title>One-&gt;Two</title>
<path fill="none" stroke="#000000" d="M286.674,-95.3727C258.076,-79.9818 206.9765,-52.481 174.0326,-34.7512"/>
<polygon fill="#000000" stroke="#000000" points="175.3109,-31.4645 164.8465,-29.8074 171.9935,-37.6285 175.3109,-31.4645"/>
<text text-anchor="middle" x="264.0393" y="-58.2" font-family="Times,serif" font-size="14.00" fill="#000000">Event A</text>
</g>
<!-- Two&#45;&gt;Three -->
<g id="edge3" class="edge">
<title>Two-&gt;Three</title>
<path fill="none" stroke="#000000" d="M130.0219,-34.2857C119.6476,-48.0988 105.366,-68.8021 96.4127,-88.8 84.9563,-114.3889 77.2922,-145.5538 72.8231,-167.5967"/>
<polygon fill="#000000" stroke="#000000" points="69.347,-167.1378 70.8832,-177.6207 76.2195,-168.4678 69.347,-167.1378"/>
<text text-anchor="middle" x="119.6543" y="-102.6" font-family="Times,serif" font-size="14.00" fill="#000000">Event B</text>
</g>
<!-- Two&#45;&gt;Four -->
<g id="edge4" class="edge">
<title>Two-&gt;Four</title>
<path fill="none" stroke="#000000" d="M142.135,-36.2381C141.7585,-57.889 142.8324,-94.8349 152.4127,-124.8 157.63,-141.1185 167.1013,-157.728 175.6791,-170.7546"/>
<polygon fill="#000000" stroke="#000000" points="172.8831,-172.8668 181.4115,-179.1531 178.6647,-168.9205 172.8831,-172.8668"/>
<text text-anchor="middle" x="175.6543" y="-102.6" font-family="Times,serif" font-size="14.00" fill="#000000">Event C</text>
</g>
<!-- End -->
<g id="node7" class="node">
<title>End</title>
<polygon fill="none" stroke="#000000" points="261.9071,-36 207.9071,-36 207.9071,0 261.9071,0 261.9071,-36"/>
<text text-anchor="middle" x="234.9071" y="-13.8" font-family="Times,serif" font-size="14.00" fill="#000000">End</text>
</g>
<!-- Five&#45;&gt;End -->
<g id="edge10" class="edge">
<title>Five-&gt;End</title>
<path fill="none" stroke="#000000" d="M234.9071,-88.4006C234.9071,-76.2949 234.9071,-60.2076 234.9071,-46.4674"/>
<polygon fill="#000000" stroke="#000000" points="238.4072,-46.072 234.9071,-36.072 231.4072,-46.0721 238.4072,-46.072"/>
</g>
</g>
</svg>