<?xml version="1.0" encoding="UTF-8" standalone="no"?><!DOCTYPE svg PUBLIC "-//W3C//DTD SVG 1.1//EN" "http://www.w3.org/Graphics/SVG/1.1/DTD/svg11.dtd"><!-- Generated by graphviz version 2.40.1 (20161225.0304)
 --><!-- Title: FSM1a Pages: 1 --><svg xmlns="http://www.w3.org/2000/svg" xmlns:xlink="http://www.w3.org/1999/xlink" width="410pt" height="582pt" viewBox="0.00 0.00 409.93 582.00">
<g id="graph0" class="graph" transform="scale(1 1) rotate(0) translate(4 578)">
<title>FSM1a</title>
<polygon fill="#ffffff" stroke="transparent" points="-4,4 -4,-578 405.9344,-578 405.9344,4 -4,4"/>
<text text-anchor="middle" x="200.9672" y="-548.4" font-family="Times,serif" font-size="24.00" fill="#000000">Finite State Machine 1a: Without layout</text>
<!-- Start -->
<g id="node1" class="node">
<title>Start</title>
<polygon fill="none" stroke="#000000" points="261.8218,-537.2 207.8218,-537.2 207.8218,-501.2 261.8218,-501.2 261.8218,-537.2"/>
<text text-anchor="middle" x="234.8218" y="-515" font-family="Times,serif" font-size="14.00" fill="#000000">Start</text>
</g>
<!-- One -->
<g id="node2" class="node">
<title>One</title>
<ellipse fill="none" stroke="#000000" cx="234.8218" cy="-446.2" rx="27.2467" ry="18"/>
<text text-anchor="middle" x="234.8218" y="-442" font-family="Times,serif" font-size="14.00" fill="#000000">One</text>
</g>
<!-- Start&#45;&gt;One -->
<g id="edge1" class="edge">
<title>Start-&gt;One</title>
<path fill="none" stroke="#000000" d="M234.8218,-501.1551C234.8218,-493.0828 234.8218,-483.3764 234.8218,-474.3817"/>
<polygon fill="#000000" stroke="#000000" points="238.3219,-474.2903 234.8218,-464.2904 231.3219,-474.2904 238.3219,-474.2903"/>
</g>
<!-- Two -->
<g id="node3" class="node">
<title>Two</title>
<ellipse fill="none" stroke="#000000" cx="234.8218" cy="-357.4" rx="28.9735" ry="18"/>
<text text-anchor="middle" x="234.8218" y="-353.2" font-family="Times,serif" font-size="14.00" fill="#000000">Two</text>
</g>
<!-- One&#45;&gt;Two -->
<g id="edge2" class="edge">
<title>One-&gt;Two</title>
<path fill="none" stroke="#000000" d="M234.8218,-427.8006C234.8218,-415.6949 234.8218,-399.6076 234.8218,-385.8674"/>
<polygon fill="#000000" stroke="#000000" points="238.3219,-385.472 234.8218,-375.472 231.3219,-385.4721 238.3219,-385.472"/>
<text text-anchor="middle" x="257.954" y="-397.6" font-family="Times,serif" font-size="14.00" fill="#000000">Event A</text>
</g>
<!-- Three -->
<g id="node4" class="node">
<title>Three</title>
<ellipse fill="none" stroke="#000000" cx="170.8218" cy="-268.6" rx="33.6054" ry="18"/>
<text text-anchor="middle" x="170.8218" y="-264.4" font-family="Times,serif" font-size="14.00" fill="#000000">Three</text>
</g>
<!-- Two&#45;&gt;Three -->
<g id="edge3" class="edge">
<title>Two-&gt;Three</title>
<path fill="none" stroke="#000000" d="M222.7839,-340.6974C213.2795,-327.51 199.8633,-308.895 189.0442,-293.8835"/>
<polygon fill="#000000" stroke="#000000" points="191.7097,-291.5958 183.0234,-285.5296 186.0309,-295.6886 191.7097,-291.5958"/>
<text text-anchor="middle" x="230.569" y="-308.8" font-family="Times,serif" font-size="14.00" fill="#000000">Event B</text>
</g>
<!-- Four -->
<g id="node5" class="node">
<title>Four</title>
<ellipse fill="none" stroke="#000000" cx="203.8218" cy="-179.8" rx="29.0548" ry="18"/>
<text text-anchor="middle" x="203.8218" y="-175.6" font-family="Times,serif" font-size="14.00" fill="#000000">Four</text>
</g>
<!-- Two&#45;&gt;Four -->
<g id="edge4" class="edge">
<title>Two-&gt;Four</title>
<path fill="none" stroke="#000000" d="M246.8309,-341.0102C250.4601,-335.1252 253.9712,-328.2452 255.8218,-321.4 264.0177,-291.0839 265.8487,-261.4603 241.8218,-215.8 238.9481,-210.3388 234.9252,-205.2419 230.5649,-200.7002"/>
<polygon fill="#000000" stroke="#000000" points="232.7283,-197.9294 223.0518,-193.6147 227.9256,-203.022 232.7283,-197.9294"/>
<text text-anchor="middle" x="283.569" y="-264.4" font-family="Times,serif" font-size="14.00" fill="#000000">Event C</text>
</g>
<!-- Three&#45;&gt;Four -->
<g id="edge5" class="edge">
<title>Three-&gt;Four</title>
<path fill="none" stroke="#000000" d="M179.1784,-250.812C181.7613,-245.055 184.5278,-238.6059 186.8218,-232.6 189.9487,-224.4135 193.0007,-215.3754 195.6359,-207.1255"/>
<polygon fill="#000000" stroke="#000000" points="198.9818,-208.1523 198.6205,-197.5637 192.2998,-206.0665 198.9818,-208.1523"/>
<text text-anchor="middle" x="214.954" y="-220" font-family="Times,serif" font-size="14.00" fill="#000000">Event D</text>
</g>
<!-- Five -->
<g id="node6" class="node">
<title>Five</title>
<ellipse fill="none" stroke="#000000" cx="123.8218" cy="-91" rx="28.4088" ry="18"/>
<text text-anchor="middle" x="123.8218" y="-86.8" font-family="Times,serif" font-size="14.00" fill="#000000">Five</text>
</g>
<!-- Three&#45;&gt;Five -->
<g id="edge7" class="edge">
<title>Three-&gt;Five</title>
<path fill="none" stroke="#000000" d="M150.8111,-253.8802C143.9411,-247.9447 136.7489,-240.6038 131.8218,-232.6 110.5765,-198.0879 113.3432,-149.4203 118.0276,-119.0661"/>
<polygon fill="#000000" stroke="#000000" points="121.4881,-119.5941 119.7283,-109.1464 114.5887,-118.4112 121.4881,-119.5941"/>
<text text-anchor="middle" x="140.792" y="-175.6" font-family="Times,serif" font-size="14.00" fill="#000000">Event F</text>
</g>
<!-- Four&#45;&gt;Three -->
<g id="edge6" class="edge">
<title>Four-&gt;Three</title>
<path fill="none" stroke="#000000" d="M176.9955,-187.1837C162.7689,-192.6156 146.5312,-201.5866 138.1114,-215.8 132.1862,-225.8024 137.0533,-236.7446 144.6733,-246.0609"/>
<polygon fill="#000000" stroke="#000000" points="142.1714,-248.5101 151.5452,-253.448 147.2966,-243.7423 142.1714,-248.5101"/>
<text text-anchor="middle" x="161.177" y="-220" font-family="Times,serif" font-size="14.00" fill="#000000">Event E</text>
</g>
<!-- Four&#45;&gt;Five -->
<g id="edge8" class="edge">
<title>Four-&gt;Five</title>
<path fill="none" stroke="#000000" d="M189.5194,-163.9243C177.1194,-150.1603 159.0056,-130.054 144.937,-114.4378"/>
<polygon fill="#000000" stroke="#000000" points="147.2942,-111.8252 138.0004,-106.7382 142.0934,-116.5105 147.2942,-111.8252"/>
<text text-anchor="middle" x="193.954" y="-131.2" font-family="Times,serif" font-size="14.00" fill="#000000">Event G</text>
</g>
<!-- End -->
<g id="node7" class="node">
<title>End</title>
<polygon fill="none" stroke="#000000" points="150.8218,-36 96.8218,-36 96.8218,0 150.8218,0 150.8218,-36"/>
<text text-anchor="middle" x="123.8218" y="-13.8" font-family="Times,serif" font-size="14.00" fill="#000000">End</text>
</g>
<!-- Five&#45;&gt;End -->
<g id="edge9" class="edge">
<title>Five-&gt;End</title>
<path fill="none" stroke="#000000" d="M123.8218,-72.9551C123.8218,-64.8828 123.8218,-55.1764 123.8218,-46.1817"/>
<polygon fill="#000000" stroke="#000000" points="127.3219,-46.0903 123.8218,-36.0904 120.3219,-46.0904 127.3219,-46.0903"/>
</g>
</g>
</svg>