<?xml version="1.0" encoding="UTF-8" standalone="no"?><!DOCTYPE svg PUBLIC "-//W3C//DTD SVG 1.1//EN" "http://www.w3.org/Graphics/SVG/1.1/DTD/svg11.dtd"><!-- Generated by graphviz version 2.40.1 (20161225.0304)
 --><!-- Title: FSM1e Pages: 1 --><svg xmlns="http://www.w3.org/2000/svg" xmlns:xlink="http://www.w3.org/1999/xlink" width="363pt" height="493pt" viewBox="0.00 0.00 363.28 493.20">
<g id="graph0" class="graph" transform="scale(1 1) rotate(0) translate(4 489.2)">
<title>FSM1e</title>
<polygon fill="#ffffff" stroke="transparent" points="-4,4 -4,-489.2 359.2832,-489.2 359.2832,4 -4,4"/>
<text text-anchor="middle" x="177.6416" y="-459.6" font-family="Times,serif" font-size="24.00" fill="#000000">Finite State Machine 1e: Fix layout</text>
<!-- Start -->
<g id="node1" class="node">
<title>Start</title>
<polygon fill="none" stroke="#000000" points="230.2857,-448.4 176.2857,-448.4 176.2857,-412.4 230.2857,-412.4 230.2857,-448.4"/>
<text text-anchor="middle" x="203.2857" y="-426.2" font-family="Times,serif" font-size="14.00" fill="#000000">Start</text>
</g>
<!-- One -->
<g id="node2" class="node">
<title>One</title>
<ellipse fill="none" stroke="#000000" cx="203.2857" cy="-357.4" rx="27.2467" ry="18"/>
<text text-anchor="middle" x="203.2857" y="-353.2" font-family="Times,serif" font-size="14.00" fill="#000000">One</text>
</g>
<!-- Start&#45;&gt;One -->
<g id="edge1" class="edge">
<title>Start-&gt;One</title>
<path fill="none" stroke="#000000" d="M203.2857,-412.3551C203.2857,-404.2828 203.2857,-394.5764 203.2857,-385.5817"/>
<polygon fill="#000000" stroke="#000000" points="206.7858,-385.4903 203.2857,-375.4904 199.7858,-385.4904 206.7858,-385.4903"/>
</g>
<!-- Two -->
<g id="node3" class="node">
<title>Two</title>
<ellipse fill="none" stroke="#000000" cx="171.2857" cy="-268.6" rx="28.9735" ry="18"/>
<text text-anchor="middle" x="171.2857" y="-264.4" font-family="Times,serif" font-size="14.00" fill="#000000">Two</text>
</g>
<!-- One&#45;&gt;Two -->
<g id="edge2" class="edge">
<title>One-&gt;Two</title>
<path fill="none" stroke="#000000" d="M188.687,-342.089C183.8182,-336.0894 178.9043,-328.8592 176.0213,-321.4 173.0683,-313.7597 171.5962,-305.0502 170.9322,-296.9383"/>
<polygon fill="#000000" stroke="#000000" points="174.42,-296.5891 170.4683,-286.7588 167.4273,-296.9078 174.42,-296.5891"/>
<text text-anchor="middle" x="199.4179" y="-308.8" font-family="Times,serif" font-size="14.00" fill="#000000">Event A</text>
</g>
<!-- Three -->
<g id="node4" class="node">
<title>Three</title>
<ellipse fill="none" stroke="#000000" cx="108.2857" cy="-179.8" rx="33.6054" ry="18"/>
<text text-anchor="middle" x="108.2857" y="-175.6" font-family="Times,serif" font-size="14.00" fill="#000000">Three</text>
</g>
<!-- Two&#45;&gt;Three -->
<g id="edge3" class="edge">
<title>Two-&gt;Three</title>
<path fill="none" stroke="#000000" d="M145.1439,-260.5827C131.7733,-255.0128 116.6884,-246.1131 108.7913,-232.6 104.5635,-225.3655 103.2903,-216.5659 103.4009,-208.241"/>
<polygon fill="#000000" stroke="#000000" points="106.9034,-208.338 104.1627,-198.1038 99.923,-207.8133 106.9034,-208.338"/>
<text text-anchor="middle" x="132.0329" y="-220" font-family="Times,serif" font-size="14.00" fill="#000000">Event B</text>
</g>
<!-- Four -->
<g id="node5" class="node">
<title>Four</title>
<ellipse fill="none" stroke="#000000" cx="234.2857" cy="-179.8" rx="29.0548" ry="18"/>
<text text-anchor="middle" x="234.2857" y="-175.6" font-family="Times,serif" font-size="14.00" fill="#000000">Four</text>
</g>
<!-- Two&#45;&gt;Four -->
<g id="edge4" class="edge">
<title>Two-&gt;Four</title>
<path fill="none" stroke="#000000" d="M169.3663,-250.207C169.1304,-239.4231 170.4511,-225.9662 176.7913,-215.8 182.4002,-206.8064 191.1715,-199.687 200.1883,-194.2356"/>
<polygon fill="#000000" stroke="#000000" points="202.0754,-197.1931 209.1789,-189.3324 198.7238,-191.0476 202.0754,-197.1931"/>
<text text-anchor="middle" x="200.0329" y="-220" font-family="Times,serif" font-size="14.00" fill="#000000">Event C</text>
</g>
<!-- Three&#45;&gt;Four -->
<g id="edge5" class="edge">
<title>Three-&gt;Four</title>
<path fill="none" stroke="#000000" d="M142.0514,-179.8C158.2298,-179.8 177.713,-179.8 194.5961,-179.8"/>
<polygon fill="#000000" stroke="#000000" points="194.7195,-183.3001 204.7194,-179.8 194.7194,-176.3001 194.7195,-183.3001"/>
<text text-anchor="middle" x="173.4238" y="-187" font-family="Times,serif" font-size="14.00" fill="#000000">Event D</text>
</g>
<!-- Five -->
<g id="node6" class="node">
<title>Five</title>
<ellipse fill="none" stroke="#000000" cx="170.2857" cy="-91" rx="28.4088" ry="18"/>
<text text-anchor="middle" x="170.2857" y="-86.8" font-family="Times,serif" font-size="14.00" fill="#000000">Five</text>
</g>
<!-- Three&#45;&gt;Five -->
<g id="edge7" class="edge">
<title>Three-&gt;Five</title>
<path fill="none" stroke="#000000" d="M120.2399,-162.6785C129.5352,-149.3653 142.5604,-130.7098 152.9926,-115.7683"/>
<polygon fill="#000000" stroke="#000000" points="155.9324,-117.6715 158.7874,-107.4685 150.1929,-113.6641 155.9324,-117.6715"/>
<text text-anchor="middle" x="167.2559" y="-131.2" font-family="Times,serif" font-size="14.00" fill="#000000">Event F</text>
</g>
<!-- Four&#45;&gt;One -->
<g id="edge9" class="edge">
<title>Four-&gt;One</title>
<path fill="none" stroke="#000000" d="M235.0331,-198.1053C235.6431,-225.506 234.8445,-278.547 222.2857,-321.4 221.2814,-324.8269 219.9333,-328.3036 218.4162,-331.6769"/>
<polygon fill="#000000" stroke="#000000" points="215.2031,-330.2761 213.8386,-340.7827 221.4573,-333.4203 215.2031,-330.2761"/>
<text text-anchor="middle" x="257.4179" y="-264.4" font-family="Times,serif" font-size="14.00" fill="#000000">Event H</text>
</g>
<!-- Four&#45;&gt;Three -->
<g id="edge6" class="edge">
<title>Four-&gt;Three</title>
<path fill="none" stroke="#000000" d="M213.4036,-166.8027C207.8739,-164.0027 201.7701,-161.4501 195.779,-160 176.4653,-155.3254 170.475,-155.727 151.0686,-160 147.689,-160.7441 144.2588,-161.7825 140.8868,-162.9978"/>
<polygon fill="#000000" stroke="#000000" points="139.5535,-159.7616 131.6283,-166.7931 142.2086,-166.2385 139.5535,-159.7616"/>
<text text-anchor="middle" x="173.4238" y="-164.2" font-family="Times,serif" font-size="14.00" fill="#000000">Event E</text>
</g>
<!-- Four&#45;&gt;Five -->
<g id="edge8" class="edge">
<title>Four-&gt;Five</title>
<path fill="none" stroke="#000000" d="M222.2478,-163.0974C212.6829,-149.826 199.1561,-131.0577 188.3017,-115.9971"/>
<polygon fill="#000000" stroke="#000000" points="190.956,-113.6939 182.2697,-107.6277 185.2772,-117.7867 190.956,-113.6939"/>
<text text-anchor="middle" x="231.4179" y="-131.2" font-family="Times,serif" font-size="14.00" fill="#000000">Event G</text>
</g>
<!-- End -->
<g id="node7" class="node">
<title>End</title>
<polygon fill="none" stroke="#000000" points="197.2857,-36 143.2857,-36 143.2857,0 197.2857,0 197.2857,-36"/>
<text text-anchor="middle" x="170.2857" y="-13.8" font-family="Times,serif" font-size="14.00" fill="#000000">End</text>
</g>
<!-- Five&#45;&gt;End -->
<g id="edge10" class="edge">
<title>Five-&gt;End</title>
<path fill="none" stroke="#000000" d="M170.2857,-72.9551C170.2857,-64.8828 170.2857,-55.1764 170.2857,-46.1817"/>
<polygon fill="#000000" stroke="#000000" points="173.7858,-46.0903 170.2857,-36.0904 166.7858,-46.0904 173.7858,-46.0903"/>
</g>
</g>
</svg>