<?xml version="1.0" encoding="UTF-8" standalone="no"?><!DOCTYPE svg PUBLIC "-//W3C//DTD SVG 1.1//EN" "http://www.w3.org/Graphics/SVG/1.1/DTD/svg11.dtd"><!-- Generated by graphviz version 2.40.1 (20161225.0304)
 --><!-- Title: FSM1b Pages: 1 --><svg xmlns="http://www.w3.org/2000/svg" xmlns:xlink="http://www.w3.org/1999/xlink" width="349pt" height="493pt" viewBox="0.00 0.00 348.60 493.20">
<g id="graph0" class="graph" transform="scale(1 1) rotate(0) translate(4 489.2)">
<title>FSM1b</title>
<polygon fill="#ffffff" stroke="transparent" points="-4,4 -4,-489.2 344.6,-489.2 344.6,4 -4,4"/>
<text text-anchor="middle" x="170.3" y="-459.6" font-family="Times,serif" font-size="24.00" fill="#000000">Finite State Machine 1b: Layout I</text>
<!-- Three -->
<g id="node1" class="node">
<title>Three</title>
<ellipse fill="none" stroke="#000000" cx="109.438" cy="-179.8" rx="33.6054" ry="18"/>
<text text-anchor="middle" x="109.438" y="-175.6" font-family="Times,serif" font-size="14.00" fill="#000000">Three</text>
</g>
<!-- Four -->
<g id="node2" class="node">
<title>Four</title>
<ellipse fill="none" stroke="#000000" cx="235.438" cy="-179.8" rx="29.0548" ry="18"/>
<text text-anchor="middle" x="235.438" y="-175.6" font-family="Times,serif" font-size="14.00" fill="#000000">Four</text>
</g>
<!-- Three&#45;&gt;Four -->
<g id="edge1" class="edge">
<title>Three-&gt;Four</title>
<path fill="none" stroke="#000000" d="M143.2037,-179.8C159.3821,-179.8 178.8653,-179.8 195.7484,-179.8"/>
<polygon fill="#000000" stroke="#000000" points="195.8718,-183.3001 205.8718,-179.8 195.8717,-176.3001 195.8718,-183.3001"/>
<text text-anchor="middle" x="174.5761" y="-187" font-family="Times,serif" font-size="14.00" fill="#000000">Event D</text>
</g>
<!-- Five -->
<g id="node6" class="node">
<title>Five</title>
<ellipse fill="none" stroke="#000000" cx="171.438" cy="-91" rx="28.4088" ry="18"/>
<text text-anchor="middle" x="171.438" y="-86.8" font-family="Times,serif" font-size="14.00" fill="#000000">Five</text>
</g>
<!-- Three&#45;&gt;Five -->
<g id="edge7" class="edge">
<title>Three-&gt;Five</title>
<path fill="none" stroke="#000000" d="M121.3923,-162.6785C130.6875,-149.3653 143.7127,-130.7098 154.1449,-115.7683"/>
<polygon fill="#000000" stroke="#000000" points="157.0847,-117.6715 159.9397,-107.4685 151.3453,-113.6641 157.0847,-117.6715"/>
<text text-anchor="middle" x="168.4082" y="-131.2" font-family="Times,serif" font-size="14.00" fill="#000000">Event F</text>
</g>
<!-- Four&#45;&gt;Three -->
<g id="edge2" class="edge">
<title>Four-&gt;Three</title>
<path fill="none" stroke="#000000" d="M214.5559,-166.8027C209.0263,-164.0027 202.9224,-161.4501 196.9313,-160 177.6177,-155.3254 171.6273,-155.727 152.2209,-160 148.8414,-160.7441 145.4111,-161.7825 142.0391,-162.9978"/>
<polygon fill="#000000" stroke="#000000" points="140.7058,-159.7616 132.7806,-166.7931 143.361,-166.2385 140.7058,-159.7616"/>
<text text-anchor="middle" x="174.5761" y="-164.2" font-family="Times,serif" font-size="14.00" fill="#000000">Event E</text>
</g>
<!-- Four&#45;&gt;Five -->
<g id="edge8" class="edge">
<title>Four-&gt;Five</title>
<path fill="none" stroke="#000000" d="M223.4001,-163.0974C213.8352,-149.826 200.3085,-131.0577 189.454,-115.9971"/>
<polygon fill="#000000" stroke="#000000" points="192.1083,-113.6939 183.422,-107.6277 186.4295,-117.7867 192.1083,-113.6939"/>
<text text-anchor="middle" x="232.5702" y="-131.2" font-family="Times,serif" font-size="14.00" fill="#000000">Event G</text>
</g>
<!-- Start -->
<g id="node3" class="node">
<title>Start</title>
<polygon fill="none" stroke="#000000" points="199.438,-448.4 145.438,-448.4 145.438,-412.4 199.438,-412.4 199.438,-448.4"/>
<text text-anchor="middle" x="172.438" y="-426.2" font-family="Times,serif" font-size="14.00" fill="#000000">Start</text>
</g>
<!-- One -->
<g id="node4" class="node">
<title>One</title>
<ellipse fill="none" stroke="#000000" cx="172.438" cy="-357.4" rx="27.2467" ry="18"/>
<text text-anchor="middle" x="172.438" y="-353.2" font-family="Times,serif" font-size="14.00" fill="#000000">One</text>
</g>
<!-- Start&#45;&gt;One -->
<g id="edge3" class="edge">
<title>Start-&gt;One</title>
<path fill="none" stroke="#000000" d="M172.438,-412.3551C172.438,-404.2828 172.438,-394.5764 172.438,-385.5817"/>
<polygon fill="#000000" stroke="#000000" points="175.9381,-385.4903 172.438,-375.4904 168.9381,-385.4904 175.9381,-385.4903"/>
</g>
<!-- Two -->
<g id="node5" class="node">
<title>Two</title>
<ellipse fill="none" stroke="#000000" cx="172.438" cy="-268.6" rx="28.9735" ry="18"/>
<text text-anchor="middle" x="172.438" y="-264.4" font-family="Times,serif" font-size="14.00" fill="#000000">Two</text>
</g>
<!-- One&#45;&gt;Two -->
<g id="edge4" class="edge">
<title>One-&gt;Two</title>
<path fill="none" stroke="#000000" d="M172.438,-339.0006C172.438,-326.8949 172.438,-310.8076 172.438,-297.0674"/>
<polygon fill="#000000" stroke="#000000" points="175.9381,-296.672 172.438,-286.672 168.9381,-296.6721 175.9381,-296.672"/>
<text text-anchor="middle" x="195.5702" y="-308.8" font-family="Times,serif" font-size="14.00" fill="#000000">Event A</text>
</g>
<!-- Two&#45;&gt;Three -->
<g id="edge5" class="edge">
<title>Two-&gt;Three</title>
<path fill="none" stroke="#000000" d="M160.5882,-251.8974C151.2323,-238.71 138.0257,-220.095 127.3757,-205.0835"/>
<polygon fill="#000000" stroke="#000000" points="130.0898,-202.8603 121.4489,-196.7296 124.3807,-206.9108 130.0898,-202.8603"/>
<text text-anchor="middle" x="170.1852" y="-220" font-family="Times,serif" font-size="14.00" fill="#000000">Event B</text>
</g>
<!-- Two&#45;&gt;Four -->
<g id="edge6" class="edge">
<title>Two-&gt;Four</title>
<path fill="none" stroke="#000000" d="M184.2879,-251.8974C193.7034,-238.626 207.0187,-219.8577 217.7036,-204.7971"/>
<polygon fill="#000000" stroke="#000000" points="220.7096,-206.6088 223.6414,-196.4277 215.0005,-202.5584 220.7096,-206.6088"/>
<text text-anchor="middle" x="233.1852" y="-220" font-family="Times,serif" font-size="14.00" fill="#000000">Event C</text>
</g>
<!-- End -->
<g id="node7" class="node">
<title>End</title>
<polygon fill="none" stroke="#000000" points="198.438,-36 144.438,-36 144.438,0 198.438,0 198.438,-36"/>
<text text-anchor="middle" x="171.438" y="-13.8" font-family="Times,serif" font-size="14.00" fill="#000000">End</text>
</g>
<!-- Five&#45;&gt;End -->
<g id="edge9" class="edge">
<title>Five-&gt;End</title>
<path fill="none" stroke="#000000" d="M171.438,-72.9551C171.438,-64.8828 171.438,-55.1764 171.438,-46.1817"/>
<polygon fill="#000000" stroke="#000000" points="174.9381,-46.0903 171.438,-36.0904 167.9381,-46.0904 174.9381,-46.0903"/>
</g>
</g>
</svg>